<svg xmlns="http://www.w3.org/2000/svg" xmlns:xlink="http://www.w3.org/1999/xlink" width="2000" zoomAndPan="magnify" viewBox="0 0 1500 1499.999933" height="2000" preserveAspectRatio="xMidYMid meet" version="1.0"><defs><g/><clipPath id="178c6fe0ac"><path d="M 1292.742188 142.191406 L 1354.914062 142.191406 L 1354.914062 204.363281 L 1292.742188 204.363281 Z M 1292.742188 142.191406 " clip-rule="nonzero"/></clipPath><clipPath id="65a321a91d"><path d="M 1323.828125 142.191406 C 1306.660156 142.191406 1292.742188 156.109375 1292.742188 173.277344 C 1292.742188 190.445312 1306.660156 204.363281 1323.828125 204.363281 C 1340.996094 204.363281 1354.914062 190.445312 1354.914062 173.277344 C 1354.914062 156.109375 1340.996094 142.191406 1323.828125 142.191406 Z M 1323.828125 142.191406 " clip-rule="nonzero"/></clipPath><clipPath id="fa5d91f3ca"><path d="M 0.742188 0.191406 L 62.914062 0.191406 L 62.914062 62.363281 L 0.742188 62.363281 Z M 0.742188 0.191406 " clip-rule="nonzero"/></clipPath><clipPath id="f808e260d3"><path d="M 31.828125 0.191406 C 14.660156 0.191406 0.742188 14.109375 0.742188 31.277344 C 0.742188 48.445312 14.660156 62.363281 31.828125 62.363281 C 48.996094 62.363281 62.914062 48.445312 62.914062 31.277344 C 62.914062 14.109375 48.996094 0.191406 31.828125 0.191406 Z M 31.828125 0.191406 " clip-rule="nonzero"/></clipPath><clipPath id="1735eea8be"><rect x="0" width="63" y="0" height="63"/></clipPath><clipPath id="98c6c5ae28"><rect x="0" width="1356" y="0" height="261"/></clipPath></defs><g transform="matrix(1, 0, 0, 1, 72, 619)"><g clip-path="url(#98c6c5ae28)"><g clip-path="url(#178c6fe0ac)"><g clip-path="url(#65a321a91d)"><g transform="matrix(1, 0, 0, 1, 1292, 142)"><g clip-path="url(#1735eea8be)"><g clip-path="url(#fa5d91f3ca)"><g clip-path="url(#f808e260d3)"><path fill="#d8ed57" d="M 0.742188 0.191406 L 62.914062 0.191406 L 62.914062 62.363281 L 0.742188 62.363281 Z M 0.742188 0.191406 " fill-opacity="1" fill-rule="nonzero"/></g></g></g></g></g></g><g fill="#17181a" fill-opacity="1"><g transform="translate(1.084136, 201.061667)"><g><path d="M 45.453125 0 L 45.453125 -142.875 L 76.84375 -142.875 L 76.84375 0 Z M 3.890625 -116.671875 L 3.890625 -142.875 L 118.625 -142.875 L 118.625 -116.671875 Z M 3.890625 -116.671875 "/></g></g></g><g fill="#17181a" fill-opacity="1"><g transform="translate(108.451559, 201.061667)"><g><path d="M 66.671875 3.03125 C 57.296875 3.03125 48.960938 1.734375 41.671875 -0.859375 C 34.378906 -3.460938 28.207031 -7.253906 23.15625 -12.234375 C 18.101562 -17.210938 14.28125 -23.269531 11.6875 -30.40625 C 9.09375 -37.550781 7.796875 -45.671875 7.796875 -54.765625 C 7.796875 -63.710938 9.054688 -71.972656 11.578125 -79.546875 C 14.109375 -87.128906 17.789062 -93.695312 22.625 -99.25 C 27.457031 -104.800781 33.410156 -109.09375 40.484375 -112.125 C 47.554688 -115.15625 55.5625 -116.671875 64.5 -116.671875 C 73.3125 -116.671875 81.070312 -115.226562 87.78125 -112.34375 C 94.488281 -109.457031 100.078125 -105.203125 104.546875 -99.578125 C 109.023438 -93.953125 112.3125 -87.097656 114.40625 -79.015625 C 116.5 -70.929688 117.179688 -61.625 116.453125 -51.09375 L 27.921875 -50.4375 L 27.921875 -67.53125 L 98.0625 -68.1875 L 87.671875 -59.3125 C 88.679688 -66.957031 88.210938 -73.234375 86.265625 -78.140625 C 84.316406 -83.046875 81.429688 -86.65625 77.609375 -88.96875 C 73.785156 -91.28125 69.488281 -92.4375 64.71875 -92.4375 C 59.238281 -92.4375 54.441406 -90.988281 50.328125 -88.09375 C 46.210938 -85.207031 43.035156 -80.988281 40.796875 -75.4375 C 38.566406 -69.882812 37.453125 -63.210938 37.453125 -55.421875 C 37.453125 -43.148438 40.117188 -34.164062 45.453125 -28.46875 C 50.796875 -22.769531 57.867188 -19.921875 66.671875 -19.921875 C 70.710938 -19.921875 74.140625 -20.457031 76.953125 -21.53125 C 79.765625 -22.613281 82.070312 -24.019531 83.875 -25.75 C 85.6875 -27.488281 87.097656 -29.4375 88.109375 -31.59375 C 89.117188 -33.757812 89.910156 -36 90.484375 -38.3125 L 117.765625 -32.6875 C 116.753906 -27.34375 114.984375 -22.503906 112.453125 -18.171875 C 109.929688 -13.847656 106.613281 -10.097656 102.5 -6.921875 C 98.382812 -3.753906 93.367188 -1.304688 87.453125 0.421875 C 81.535156 2.160156 74.609375 3.03125 66.671875 3.03125 Z M 66.671875 3.03125 "/></g></g></g><g fill="#17181a" fill-opacity="1"><g transform="translate(234.002189, 201.061667)"><g><path d="M 66.453125 3.03125 C 56.640625 3.03125 48.050781 1.585938 40.6875 -1.296875 C 33.332031 -4.179688 27.238281 -8.222656 22.40625 -13.421875 C 17.570312 -18.617188 13.925781 -24.785156 11.46875 -31.921875 C 9.019531 -39.066406 7.796875 -46.898438 7.796875 -55.421875 C 7.796875 -64.367188 9.019531 -72.554688 11.46875 -79.984375 C 13.925781 -87.421875 17.609375 -93.878906 22.515625 -99.359375 C 27.421875 -104.835938 33.476562 -109.09375 40.6875 -112.125 C 47.90625 -115.15625 56.132812 -116.671875 65.375 -116.671875 C 72.445312 -116.671875 78.796875 -115.769531 84.421875 -113.96875 C 90.046875 -112.164062 94.953125 -109.640625 99.140625 -106.390625 C 103.328125 -103.148438 106.753906 -99.253906 109.421875 -94.703125 C 112.085938 -90.160156 113.859375 -85.070312 114.734375 -79.4375 L 86.15625 -70.78125 C 85.71875 -75.40625 84.523438 -79.335938 82.578125 -82.578125 C 80.628906 -85.828125 78.066406 -88.242188 74.890625 -89.828125 C 71.722656 -91.421875 68.046875 -92.21875 63.859375 -92.21875 C 60.390625 -92.21875 57.175781 -91.53125 54.21875 -90.15625 C 51.257812 -88.789062 48.660156 -86.695312 46.421875 -83.875 C 44.191406 -81.0625 42.425781 -77.414062 41.125 -72.9375 C 39.832031 -68.46875 39.1875 -63.0625 39.1875 -56.71875 C 39.1875 -48.195312 40.300781 -41.265625 42.53125 -35.921875 C 44.769531 -30.585938 47.984375 -26.65625 52.171875 -24.125 C 56.359375 -21.601562 61.265625 -20.34375 66.890625 -20.34375 C 72.515625 -20.34375 77.019531 -21.5 80.40625 -23.8125 C 83.800781 -26.125 86.328125 -29.046875 87.984375 -32.578125 C 89.648438 -36.109375 90.628906 -39.828125 90.921875 -43.734375 L 118.40625 -37.875 C 117.832031 -32.25 116.390625 -26.945312 114.078125 -21.96875 C 111.765625 -16.988281 108.476562 -12.625 104.21875 -8.875 C 99.96875 -5.125 94.703125 -2.203125 88.421875 -0.109375 C 82.148438 1.984375 74.828125 3.03125 66.453125 3.03125 Z M 66.453125 3.03125 "/></g></g></g><g fill="#17181a" fill-opacity="1"><g transform="translate(355.872873, 201.061667)"><g><path d="M 13.859375 0 L 13.859375 -154.34375 L 45.03125 -154.34375 L 45.03125 -119.484375 C 45.03125 -116.597656 44.921875 -113.492188 44.703125 -110.171875 C 44.484375 -106.859375 44.15625 -103.46875 43.71875 -100 C 43.289062 -96.539062 42.820312 -93.078125 42.3125 -89.609375 C 41.8125 -86.148438 41.203125 -82.757812 40.484375 -79.4375 L 45.03125 -79.4375 C 47.050781 -87.238281 49.609375 -93.914062 52.703125 -99.46875 C 55.804688 -105.019531 59.847656 -109.273438 64.828125 -112.234375 C 69.804688 -115.191406 76.050781 -116.671875 83.5625 -116.671875 C 91.207031 -116.671875 97.484375 -115.265625 102.390625 -112.453125 C 107.296875 -109.640625 111.117188 -105.992188 113.859375 -101.515625 C 116.597656 -97.046875 118.617188 -92.175781 119.921875 -86.90625 C 121.222656 -81.644531 122.050781 -76.488281 122.40625 -71.4375 C 122.769531 -66.382812 122.953125 -61.984375 122.953125 -58.234375 L 122.953125 0 L 91.78125 0 L 91.78125 -54.765625 C 91.78125 -60.109375 91.421875 -64.976562 90.703125 -69.375 C 89.984375 -73.78125 88.828125 -77.566406 87.234375 -80.734375 C 85.648438 -83.910156 83.519531 -86.363281 80.84375 -88.09375 C 78.175781 -89.832031 74.894531 -90.703125 71 -90.703125 C 65.226562 -90.703125 60.46875 -88.96875 56.71875 -85.5 C 52.96875 -82.039062 50.113281 -77.316406 48.15625 -71.328125 C 46.207031 -65.335938 45.164062 -58.519531 45.03125 -50.875 L 45.03125 0 Z M 13.859375 0 "/></g></g><g transform="translate(491.164518, 201.061667)"><g><path d="M 13.859375 0 L 13.859375 -113.640625 L 39.390625 -113.640625 L 39.1875 -78.359375 L 43.296875 -78.359375 C 45.171875 -87.742188 47.945312 -95.210938 51.625 -100.765625 C 55.300781 -106.316406 59.773438 -110.351562 65.046875 -112.875 C 70.316406 -115.40625 76.269531 -116.671875 82.90625 -116.671875 C 90.40625 -116.671875 96.570312 -115.335938 101.40625 -112.671875 C 106.25 -110.003906 110.113281 -106.503906 113 -102.171875 C 115.882812 -97.835938 118.046875 -93.109375 119.484375 -87.984375 C 120.929688 -82.867188 121.867188 -77.785156 122.296875 -72.734375 C 122.734375 -67.679688 122.953125 -63.132812 122.953125 -59.09375 L 122.953125 0 L 91.78125 0 L 91.78125 -55.421875 C 91.78125 -58.160156 91.632812 -61.476562 91.34375 -65.375 C 91.0625 -69.269531 90.304688 -73.128906 89.078125 -76.953125 C 87.847656 -80.773438 85.828125 -83.984375 83.015625 -86.578125 C 80.203125 -89.179688 76.269531 -90.484375 71.21875 -90.484375 C 65.445312 -90.484375 60.648438 -88.710938 56.828125 -85.171875 C 53.003906 -81.640625 50.082031 -76.84375 48.0625 -70.78125 C 46.039062 -64.71875 45.03125 -57.9375 45.03125 -50.4375 L 45.03125 0 Z M 13.859375 0 "/></g></g><g transform="translate(626.456163, 201.061667)"><g><path d="M 13.859375 0 L 13.859375 -113.640625 L 45.03125 -113.640625 L 45.03125 0 Z M 29.4375 -130.09375 C 23.382812 -130.09375 18.734375 -131.390625 15.484375 -133.984375 C 12.234375 -136.585938 10.609375 -140.269531 10.609375 -145.03125 C 10.609375 -150.082031 12.234375 -153.90625 15.484375 -156.5 C 18.734375 -159.101562 23.382812 -160.40625 29.4375 -160.40625 C 35.644531 -160.40625 40.375 -159.101562 43.625 -156.5 C 46.875 -153.90625 48.5 -150.082031 48.5 -145.03125 C 48.5 -140.269531 46.875 -136.585938 43.625 -133.984375 C 40.375 -131.390625 35.644531 -130.09375 29.4375 -130.09375 Z M 29.4375 -130.09375 "/></g></g></g><g fill="#17181a" fill-opacity="1"><g transform="translate(685.335068, 201.061667)"><g><path d="M 80.75 3.03125 C 69.632812 3.03125 59.707031 1.441406 50.96875 -1.734375 C 42.238281 -4.910156 34.84375 -9.597656 28.78125 -15.796875 C 22.726562 -22.003906 18.113281 -29.65625 14.9375 -38.75 C 11.757812 -47.84375 10.171875 -58.234375 10.171875 -69.921875 C 10.171875 -82.046875 11.796875 -92.757812 15.046875 -102.0625 C 18.296875 -111.375 22.945312 -119.3125 29 -125.875 C 35.0625 -132.4375 42.273438 -137.414062 50.640625 -140.8125 C 59.015625 -144.207031 68.398438 -145.90625 78.796875 -145.90625 C 86.878906 -145.90625 94.3125 -144.820312 101.09375 -142.65625 C 107.875 -140.488281 113.71875 -137.421875 118.625 -133.453125 C 123.53125 -129.484375 127.351562 -124.648438 130.09375 -118.953125 C 132.832031 -113.253906 134.203125 -106.867188 134.203125 -99.796875 L 105.421875 -92.4375 C 105.421875 -98.632812 104.117188 -103.789062 101.515625 -107.90625 C 98.921875 -112.019531 95.53125 -115.125 91.34375 -117.21875 C 87.164062 -119.3125 82.625 -120.359375 77.71875 -120.359375 C 73.382812 -120.359375 69.160156 -119.488281 65.046875 -117.75 C 60.929688 -116.019531 57.175781 -113.242188 53.78125 -109.421875 C 50.394531 -105.597656 47.726562 -100.617188 45.78125 -94.484375 C 43.832031 -88.347656 42.859375 -80.8125 42.859375 -71.875 C 42.859375 -60.320312 44.515625 -50.898438 47.828125 -43.609375 C 51.148438 -36.328125 55.734375 -30.988281 61.578125 -27.59375 C 67.429688 -24.207031 74.035156 -22.515625 81.390625 -22.515625 C 89.179688 -22.515625 95.273438 -24.132812 99.671875 -27.375 C 104.078125 -30.625 107.253906 -34.847656 109.203125 -40.046875 C 111.148438 -45.242188 112.195312 -50.726562 112.34375 -56.5 L 139.84375 -52.171875 C 139.695312 -44.523438 138.578125 -37.34375 136.484375 -30.625 C 134.390625 -23.914062 131 -18.035156 126.3125 -12.984375 C 121.625 -7.929688 115.523438 -4 108.015625 -1.1875 C 100.515625 1.625 91.425781 3.03125 80.75 3.03125 Z M 80.75 3.03125 "/></g></g><g transform="translate(831.666511, 201.061667)"><g><path d="M 65.59375 3.03125 C 54.1875 3.03125 44.15625 0.757812 35.5 -3.78125 C 26.84375 -8.332031 20.0625 -15.046875 15.15625 -23.921875 C 10.25 -32.796875 7.796875 -43.867188 7.796875 -57.140625 C 7.796875 -70.421875 10.285156 -81.460938 15.265625 -90.265625 C 20.242188 -99.066406 27.0625 -105.664062 35.71875 -110.0625 C 44.375 -114.46875 54.257812 -116.671875 65.375 -116.671875 C 76.769531 -116.671875 86.796875 -114.429688 95.453125 -109.953125 C 104.117188 -105.484375 110.941406 -98.8125 115.921875 -89.9375 C 120.898438 -81.0625 123.390625 -69.988281 123.390625 -56.71875 C 123.390625 -43.144531 120.863281 -31.957031 115.8125 -23.15625 C 110.757812 -14.351562 103.832031 -7.785156 95.03125 -3.453125 C 86.226562 0.867188 76.414062 3.03125 65.59375 3.03125 Z M 66.453125 -20.125 C 69.921875 -20.125 73.171875 -20.703125 76.203125 -21.859375 C 79.234375 -23.015625 81.9375 -24.925781 84.3125 -27.59375 C 86.695312 -30.269531 88.570312 -33.878906 89.9375 -38.421875 C 91.3125 -42.960938 92 -48.484375 92 -54.984375 C 92 -61.910156 91.238281 -67.753906 89.71875 -72.515625 C 88.207031 -77.273438 86.1875 -81.132812 83.65625 -84.09375 C 81.132812 -87.050781 78.210938 -89.179688 74.890625 -90.484375 C 71.578125 -91.785156 68.113281 -92.4375 64.5 -92.4375 C 61.1875 -92.4375 57.976562 -91.859375 54.875 -90.703125 C 51.769531 -89.546875 49.0625 -87.628906 46.75 -84.953125 C 44.445312 -82.285156 42.570312 -78.710938 41.125 -74.234375 C 39.6875 -69.765625 38.96875 -64.210938 38.96875 -57.578125 C 38.96875 -50.648438 39.6875 -44.804688 41.125 -40.046875 C 42.570312 -35.285156 44.59375 -31.425781 47.1875 -28.46875 C 49.789062 -25.507812 52.75 -23.378906 56.0625 -22.078125 C 59.382812 -20.773438 62.847656 -20.125 66.453125 -20.125 Z M 66.453125 -20.125 "/></g></g></g><g fill="#17181a" fill-opacity="1"><g transform="translate(962.845261, 201.061667)"><g><path d="M 51.953125 3.03125 C 46.328125 3.03125 41.347656 2.234375 37.015625 0.640625 C 32.679688 -0.941406 28.960938 -3.285156 25.859375 -6.390625 C 22.765625 -9.492188 20.207031 -13.242188 18.1875 -17.640625 C 16.164062 -22.046875 14.648438 -27.097656 13.640625 -32.796875 C 12.628906 -38.492188 12.125 -44.804688 12.125 -51.734375 L 12.125 -113.640625 L 43.515625 -113.640625 L 43.515625 -58.65625 C 43.515625 -55.488281 43.617188 -51.882812 43.828125 -47.84375 C 44.046875 -43.800781 44.769531 -39.867188 46 -36.046875 C 47.226562 -32.222656 49.210938 -29.082031 51.953125 -26.625 C 54.691406 -24.175781 58.515625 -22.953125 63.421875 -22.953125 C 67.460938 -22.953125 70.960938 -23.925781 73.921875 -25.875 C 76.878906 -27.820312 79.441406 -30.632812 81.609375 -34.3125 C 83.773438 -37.988281 85.398438 -42.316406 86.484375 -47.296875 C 87.566406 -52.273438 88.175781 -57.722656 88.3125 -63.640625 L 88.3125 -113.640625 L 119.484375 -113.640625 L 119.484375 0 L 94.15625 0 L 94.15625 -36.359375 L 90.265625 -36.359375 C 88.390625 -27.128906 85.789062 -19.625 82.46875 -13.84375 C 79.15625 -8.070312 75.007812 -3.816406 70.03125 -1.078125 C 65.050781 1.660156 59.023438 3.03125 51.953125 3.03125 Z M 51.953125 3.03125 "/></g></g></g><g fill="#17181a" fill-opacity="1"><g transform="translate(1096.188656, 201.061667)"><g><path d="M 13.859375 0 L 13.859375 -113.640625 L 39.828125 -113.640625 L 39.609375 -74.25 L 43.734375 -74.25 C 44.878906 -84.0625 46.820312 -92.066406 49.5625 -98.265625 C 52.3125 -104.472656 56.175781 -109.019531 61.15625 -111.90625 C 66.132812 -114.800781 72.300781 -116.25 79.65625 -116.25 C 81.101562 -116.25 82.617188 -116.175781 84.203125 -116.03125 C 85.796875 -115.882812 87.601562 -115.59375 89.625 -115.15625 L 88.53125 -82.046875 C 86.082031 -83.054688 83.59375 -83.773438 81.0625 -84.203125 C 78.539062 -84.640625 76.195312 -84.859375 74.03125 -84.859375 C 68.550781 -84.859375 63.789062 -83.554688 59.75 -80.953125 C 55.707031 -78.359375 52.492188 -74.609375 50.109375 -69.703125 C 47.734375 -64.796875 46.039062 -58.734375 45.03125 -51.515625 L 45.03125 0 Z M 13.859375 0 "/></g></g></g><g fill="#17181a" fill-opacity="1"><g transform="translate(1193.165756, 201.061667)"><g><path d="M 56.28125 2.59375 C 50.070312 2.59375 44.660156 1.796875 40.046875 0.203125 C 35.429688 -1.378906 31.570312 -3.863281 28.46875 -7.25 C 25.363281 -10.644531 23.015625 -15.007812 21.421875 -20.34375 C 19.835938 -25.6875 19.046875 -32.035156 19.046875 -39.390625 L 19.046875 -89.1875 L 2.8125 -89.1875 L 3.46875 -113.21875 L 13.859375 -113.21875 C 18.617188 -113.351562 22.148438 -114.175781 24.453125 -115.6875 C 26.765625 -117.207031 28.140625 -119.914062 28.578125 -123.8125 L 31.171875 -138.96875 L 48.921875 -138.96875 L 48.921875 -113.640625 L 77.5 -113.640625 L 77.5 -88.3125 L 48.921875 -88.3125 L 48.921875 -40.90625 C 48.921875 -34.988281 50.363281 -31.019531 53.25 -29 C 56.132812 -26.976562 59.671875 -25.96875 63.859375 -25.96875 C 66.453125 -25.96875 69.046875 -26.289062 71.640625 -26.9375 C 74.242188 -27.59375 76.484375 -28.5 78.359375 -29.65625 L 78.359375 -0.65625 C 73.890625 0.644531 69.773438 1.507812 66.015625 1.9375 C 62.265625 2.375 59.019531 2.59375 56.28125 2.59375 Z M 56.28125 2.59375 "/></g></g></g></g></g></svg>